<svg id="wave" style="transform:rotate(0deg); transition: 0.3s" viewBox="0 0 1440 490" version="1.1" xmlns="http://www.w3.org/2000/svg"><defs><linearGradient id="sw-gradient-0" x1="0" x2="0" y1="1" y2="0"><stop stop-color="rgba(156, 39, 176, 1)" offset="0%"></stop><stop stop-color="rgba(245.73, 202.324, 253.15, 1)" offset="100%"></stop></linearGradient></defs><path style="transform:translate(0, 0px); opacity:1" fill="url(#sw-gradient-0)" d="M0,245L240,392L480,245L720,147L960,392L1200,245L1440,0L1680,441L1920,343L2160,392L2400,147L2640,392L2880,147L3120,245L3360,441L3600,0L3840,0L4080,245L4320,196L4560,196L4800,245L5040,392L5280,441L5520,392L5760,147L5760,490L5520,490L5280,490L5040,490L4800,490L4560,490L4320,490L4080,490L3840,490L3600,490L3360,490L3120,490L2880,490L2640,490L2400,490L2160,490L1920,490L1680,490L1440,490L1200,490L960,490L720,490L480,490L240,490L0,490Z"></path></svg>